<svg width="18" height="18" viewBox="0 0 18 18" fill="none" xmlns="http://www.w3.org/2000/svg">
<path d="M0.666687 15.6667H17.3334V17.3334H0.666687V15.6667ZM2.33335 9.00002H4.00002V14.8334H2.33335V9.00002ZM6.50002 9.00002H8.16669V14.8334H6.50002V9.00002ZM9.83335 9.00002H11.5V14.8334H9.83335V9.00002ZM14 9.00002H15.6667V14.8334H14V9.00002ZM0.666687 4.83335L9.00002 0.666687L17.3334 4.83335V8.16669H0.666687V4.83335ZM2.33335 5.86335V6.50002H15.6667V5.86335L9.00002 2.53002L2.33335 5.86335ZM9.00002 5.66669C8.77901 5.66669 8.56705 5.57889 8.41076 5.42261C8.25448 5.26633 8.16669 5.05437 8.16669 4.83335C8.16669 4.61234 8.25448 4.40038 8.41076 4.2441C8.56705 4.08782 8.77901 4.00002 9.00002 4.00002C9.22103 4.00002 9.43299 4.08782 9.58928 4.2441C9.74556 4.40038 9.83335 4.61234 9.83335 4.83335C9.83335 5.05437 9.74556 5.26633 9.58928 5.42261C9.43299 5.57889 9.22103 5.66669 9.00002 5.66669Z" fill="white"/>
</svg>
