<svg width="18" height="18" viewBox="0 0 18 18" fill="none" xmlns="http://www.w3.org/2000/svg">
<path d="M10.6667 0.666688C12.1916 0.66596 13.6708 1.18808 14.8574 2.14596C16.044 3.10384 16.8663 4.43958 17.1872 5.93041C17.5081 7.42124 17.3082 8.97703 16.6209 10.3383C15.9335 11.6996 14.8002 12.7841 13.41 13.4109C12.9656 14.3933 12.2896 15.2533 11.4399 15.917C10.5902 16.5808 9.59212 17.0286 8.53135 17.222C7.47058 17.4153 6.37874 17.3485 5.34946 17.0273C4.32018 16.706 3.38419 16.1399 2.62175 15.3774C1.85931 14.615 1.29318 13.679 0.97192 12.6497C0.650655 11.6204 0.58384 10.5286 0.777207 9.46783C0.970573 8.40706 1.41835 7.40902 2.08213 6.5593C2.74592 5.70959 3.6059 5.03356 4.58832 4.58919C5.11678 3.41993 5.97131 2.42794 7.04944 1.73219C8.12758 1.03645 9.38352 0.666489 10.6667 0.666688ZM7.33332 5.66669C6.67671 5.66669 6.02654 5.79602 5.41991 6.04729C4.81328 6.29856 4.26208 6.66686 3.79779 7.13115C3.3335 7.59545 2.9652 8.14664 2.71393 8.75327C2.46265 9.3599 2.33332 10.0101 2.33332 10.6667C2.33332 11.3233 2.46265 11.9735 2.71393 12.5801C2.9652 13.1867 3.3335 13.7379 3.79779 14.2022C4.26208 14.6665 4.81328 15.0348 5.41991 15.2861C6.02654 15.5374 6.67671 15.6667 7.33332 15.6667C8.65941 15.6667 9.93118 15.1399 10.8689 14.2022C11.8065 13.2645 12.3333 11.9928 12.3333 10.6667C12.3333 9.34061 11.8065 8.06884 10.8689 7.13115C9.93118 6.19347 8.65941 5.66669 7.33332 5.66669ZM8.16666 6.50002V7.33335H9.83332V9.00002H6.49999C6.39587 8.99983 6.29545 9.03863 6.2185 9.10878C6.14156 9.17893 6.09367 9.27534 6.08426 9.37904C6.07485 9.48274 6.10461 9.5862 6.16767 9.66905C6.23074 9.7519 6.32253 9.80814 6.42499 9.82669L6.49999 9.83335H8.16666C8.71919 9.83335 9.2491 10.0528 9.6398 10.4435C10.0305 10.8342 10.25 11.3642 10.25 11.9167C10.25 12.4692 10.0305 12.9991 9.6398 13.3898C9.2491 13.7805 8.71919 14 8.16666 14V14.8334H6.49999V14H4.83332V12.3334H8.16666C8.27078 12.3335 8.3712 12.2947 8.44814 12.2246C8.52509 12.1544 8.57298 12.058 8.58239 11.9543C8.59179 11.8506 8.56204 11.7472 8.49897 11.6643C8.43591 11.5815 8.34411 11.5252 8.24166 11.5067L8.16666 11.5H6.49999C5.94746 11.5 5.41755 11.2805 5.02685 10.8898C4.63615 10.4991 4.41666 9.96922 4.41666 9.41669C4.41666 8.86415 4.63615 8.33425 5.02685 7.94355C5.41755 7.55285 5.94746 7.33335 6.49999 7.33335V6.50002H8.16666ZM10.6667 2.33335C9.96056 2.33253 9.26234 2.48164 8.61818 2.77082C7.97401 3.06 7.3986 3.48267 6.92999 4.01085C7.87188 3.95368 8.81517 4.0971 9.6975 4.43164C10.5798 4.76619 11.3811 5.28422 12.0483 5.9515C12.7155 6.61878 13.2334 7.4201 13.5679 8.30247C13.9023 9.18483 14.0456 10.1281 13.9883 11.07C14.746 10.3964 15.281 9.50831 15.5223 8.52361C15.7637 7.53892 15.7 6.50412 15.3397 5.55646C14.9794 4.60879 14.3395 3.79305 13.5049 3.21742C12.6704 2.64179 11.6805 2.33347 10.6667 2.33335Z" fill="white"/>
</svg>
