<svg width="18" height="18" viewBox="0 0 18 18" fill="none" xmlns="http://www.w3.org/2000/svg">
<path d="M9 17.3334C4.3975 17.3334 0.666666 13.6025 0.666666 9.00002C0.666666 4.39752 4.3975 0.666687 9 0.666687C13.6025 0.666687 17.3333 4.39752 17.3333 9.00002C17.3333 13.6025 13.6025 17.3334 9 17.3334ZM9 15.6667C10.7681 15.6667 12.4638 14.9643 13.714 13.7141C14.9643 12.4638 15.6667 10.7681 15.6667 9.00002C15.6667 7.23191 14.9643 5.53622 13.714 4.28598C12.4638 3.03573 10.7681 2.33335 9 2.33335C7.23189 2.33335 5.5362 3.03573 4.28595 4.28598C3.03571 5.53622 2.33333 7.23191 2.33333 9.00002C2.33333 10.7681 3.03571 12.4638 4.28595 13.7141C5.5362 14.9643 7.23189 15.6667 9 15.6667ZM6.08333 10.6667H10.6667C10.7772 10.6667 10.8832 10.6228 10.9613 10.5446C11.0394 10.4665 11.0833 10.3605 11.0833 10.25C11.0833 10.1395 11.0394 10.0335 10.9613 9.95539C10.8832 9.87725 10.7772 9.83335 10.6667 9.83335H7.33333C6.7808 9.83335 6.25089 9.61386 5.86019 9.22316C5.46949 8.83246 5.25 8.30255 5.25 7.75002C5.25 7.19749 5.46949 6.66758 5.86019 6.27688C6.25089 5.88618 6.7808 5.66669 7.33333 5.66669H8.16667V4.00002H9.83333V5.66669H11.9167V7.33335H7.33333C7.22283 7.33335 7.11684 7.37725 7.0387 7.45539C6.96056 7.53353 6.91667 7.63951 6.91667 7.75002C6.91667 7.86053 6.96056 7.96651 7.0387 8.04465C7.11684 8.12279 7.22283 8.16669 7.33333 8.16669H10.6667C11.2192 8.16669 11.7491 8.38618 12.1398 8.77688C12.5305 9.16758 12.75 9.69749 12.75 10.25C12.75 10.8026 12.5305 11.3325 12.1398 11.7232C11.7491 12.1139 11.2192 12.3334 10.6667 12.3334H9.83333V14H8.16667V12.3334H6.08333V10.6667Z" fill="white"/>
</svg>
